Coordinates
version=1
nRows=13
nColumns=36
inDegrees=yes

Units are S.I. units (second, meters, Newtons, ...)
If the header above contains a line with 'inDegrees', this indicates whether rotational values are in degrees (yes) or radians (no).

endheader
time	pelvis_tilt	pelvis_list	pelvis_rotation	pelvis_tx	pelvis_ty	pelvis_tz	hip_flexion_r	hip_adduction_r	hip_rotation_r	knee_angle_r	knee_angle_r_beta	ankle_angle_r	subtalar_angle_r	mtp_angle_r	hip_flexion_l	hip_adduction_l	hip_rotation_l	knee_angle_l	knee_angle_l_beta	ankle_angle_l	subtalar_angle_l	mtp_angle_l	lumbar_extension	lumbar_bending	lumbar_rotation	arm_flex_r	arm_add_r	arm_rot_r	elbow_flex_r	pro_sup_r	arm_flex_l	arm_add_l	arm_rot_l	elbow_flex_l	pro_sup_l
      1.12000000	     -5.34259337	      1.82395435	      0.54892221	      1.11654593	      0.93423650	     -0.23505268	     30.96598786	     -2.40054128	     -5.15324468	      7.16699388	      0.12508764	      2.35587778	      0.42530553	     -7.27102346	     -7.54208797	      4.59474902	     -2.12428561	      4.69061831	      0.08186673	     13.60657592	      6.63739799	     -7.27102346	     -6.27438955	     -8.30776571	     -4.43779528	     -2.82834398	    -10.52182937	     14.09283153	     37.80335690	    105.02654727	      9.76944560	    -15.54847588	     -0.70388821	     44.39319626	     98.54508876
      1.13000000	     -5.29049148	      1.73353828	      0.89801378	      1.12718114	      0.93265348	     -0.23560152	     30.88682621	     -2.45373971	     -6.15783940	      5.65131210	      0.09863400	      3.09471894	      2.47430123	     -7.28028288	     -8.17962437	      4.35995488	     -2.33588444	      4.96897057	      0.08672490	     14.23375206	      7.79190960	     -7.28028288	     -6.31831623	     -7.62520813	     -4.90971870	     -2.88294803	    -10.35616815	     13.02326961	     37.72225887	    105.02878375	      9.79665843	    -15.61728595	     -0.53992537	     45.05712611	     98.72783673
      1.14000000	     -5.47242198	      1.62644961	      1.27887711	      1.13782545	      0.93075684	     -0.23607111	     30.99201710	     -2.44962427	     -6.40512367	      4.39293173	      0.07667112	      3.24677309	      2.94535646	     -7.28282330	     -8.53381082	      4.12498224	     -2.13486482	      5.29300519	      0.09238037	     14.45426352	      8.00994205	     -7.28282330	     -6.07082809	     -6.91202650	     -5.39359530	     -2.94845349	    -10.35296385	     12.66319339	     37.60701612	    105.01813435	      9.83604919	    -15.62690600	     -0.35890124	     45.38269002	     98.79807562
      1.15000000	     -5.51890367	      1.46417350	      1.71974716	      1.14866225	      0.92903839	     -0.23659573	     30.95238433	     -2.43744039	     -6.79091541	      3.58875009	      0.06263551	      3.42179773	      3.11885397	     -7.28620580	     -8.99183146	      3.80681488	     -1.96300197	      5.71528275	      0.09975050	     14.83924032	      8.34986263	     -7.28620580	     -5.97813432	     -6.12595986	     -5.96829821	     -2.95812844	    -10.27611145	     12.05634887	     37.46418041	    104.99176659	      9.74102866	    -15.66019026	     -0.15184764	     45.86442061	     98.87592942
      1.16000000	     -5.62393275	      1.29752776	      2.17793843	      1.15971563	      0.92718216	     -0.23712752	     31.00107606	     -2.44924519	     -6.97597294	      3.28525888	      0.05733858	      3.73265236	      2.88798311	     -7.28768161	     -9.36654367	      3.48422654	     -1.68921525	      6.17777936	      0.10782259	     14.90409418	      8.53999987	     -7.28768161	     -5.77957495	     -5.32585097	     -6.38081505	     -3.08566856	    -10.32716541	     11.72011753	     37.33262608	    104.96937112	      9.71115654	    -15.55982384	     -0.00654370	     46.20506862	     98.92005393
      1.17000000	     -5.63652811	      1.06692117	      2.66581210	      1.17101174	      0.92541526	     -0.23770246	     30.95200793	     -2.41706126	     -7.16671415	      3.41318080	      0.05957124	      3.90427419	      2.32740304	     -7.28944971	     -9.80344894	      3.08324779	     -1.44480070	      6.74684552	      0.11775467	     15.15766695	      8.67686899	     -7.28944971	     -5.66708802	     -4.42269434	     -6.99774939	     -3.13526210	    -10.34044349	     11.20328345	     37.21633496	    104.93231504	      9.49166992	    -15.48378813	      0.18999837	     46.58793533	     98.96376815
      1.18000000	     -5.66451027	      0.80940457	      3.15319864	      1.18247498	      0.92354251	     -0.23808406	     30.85271584	     -2.31082114	     -6.83091407	      3.72860968	      0.06507652	      3.34604526	      0.47921463	     -7.30091124	    -10.10267930	      2.58806217	     -1.61721284	      7.54038305	      0.13160451	     15.79578505	      9.50433303	     -7.30091124	     -5.54987487	     -3.46307014	     -7.53858167	     -3.30167189	    -10.11900469	      9.68788628	     37.30184532	    105.02833749	      9.07098264	    -15.37096528	      0.08115596	     47.32321561	     98.88475087
      1.19000000	     -5.65315217	      0.53446926	      3.63081621	      1.19429241	      0.92171898	     -0.23858238	     30.82922578	     -2.22969438	     -6.99571637	      4.61169209	      0.08048921	      3.34170215	     -0.40057855	     -7.30292515	    -10.55607577	      2.12610020	     -1.32950083	      8.14903985	      0.14222758	     15.86081536	      9.44485538	     -7.30292515	     -5.38571281	     -2.48019604	     -8.01024990	     -3.40976724	    -10.21241362	      9.38806563	     37.16543335	    105.03022319	      8.78303898	    -15.20908868	      0.31570533	     47.55859398	     98.90563285
      1.20000000	     -5.72609052	      0.26781898	      4.08798318	      1.20614298	      0.91973355	     -0.23893902	     30.92230594	     -2.11583895	     -6.85629483	      5.70541970	      0.09957836	      2.70850115	     -1.89166411	     -7.30648323	    -10.84643915	      1.66899182	     -1.01408453	      8.89671682	      0.15527700	     16.03212731	      9.35695337	     -7.30648323	     -5.13188332	     -1.51085472	     -8.54913735	     -3.47181300	    -10.23372928	      8.79133631	     37.02594519	    105.02887366	      8.31175112	    -15.08045044	      0.44220256	     48.00666617	     98.91120733
      1.21000000	     -5.79888830	     -0.06524709	      4.41685539	      1.21825453	      0.91773769	     -0.23894948	     30.95658793	     -1.79157837	     -6.16265577	      6.75143079	      0.11783470	      1.18158676	     -4.31686924	     -7.31528268	    -11.17410317	      1.13633433	     -0.87492115	      9.58201746	      0.16723775	     16.07952930	      9.31032687	     -7.31528268	     -4.84472586	     -0.48817177	     -8.93077008	     -3.57966920	    -10.18844713	      8.01984683	     36.89037774	    105.11996450	      7.77270223	    -14.80688737	      0.26178011	     48.45636188	     98.81955728
      1.22000000	     -5.84881651	     -0.42408962	      4.73773163	      1.23044087	      0.91580280	     -0.23900709	     31.07725240	     -1.46982532	     -5.79720332	      8.06891942	      0.14082921	     -0.22327861	     -6.04435697	     -7.32391365	    -11.49817995	      0.58282836	     -0.63497510	     10.32011144	      0.18011992	     16.01112110	      9.14353742	     -7.32391365	     -4.56812510	      0.58574512	     -9.29405105	     -3.62981002	    -10.26586515	      7.59787719	     36.68786698	    105.20761867	      7.25949098	    -14.53853487	      0.27630991	     48.72586876	     98.76181225
      1.23000000	     -5.86500088	     -0.83107636	      4.99478944	      1.24273681	      0.91397948	     -0.23900319	     31.26831972	     -1.10630478	     -5.70027575	      9.61155731	      0.16775332	     -1.39447511	     -7.01906025	     -7.32674344	    -11.85696446	     -0.01396083	     -0.43203834	     11.05101166	      0.19287654	     15.81171965	      8.89493347	     -7.32674344	     -4.31672140	      1.72649882	     -9.57828317	     -3.65179252	    -10.40317904	      7.32684425	     36.46563518	    105.19383743	      6.77231438	    -14.23360831	      0.37462969	     48.86763120	     98.76395023
      1.24000000	     -5.96330599	     -1.30277930	      5.17182613	      1.25500603	      0.91218867	     -0.23877125	     31.53052428	     -0.58527440	     -5.05167877	     11.07014142	      0.19321042	     -3.31141715	     -8.92622537	     -7.33112276	    -12.06965473	     -0.66185981	     -0.17535012	     11.88291777	      0.20739604	     15.50773240	      8.45900980	     -7.33112276	     -4.01270493	      2.93344382	     -9.82264150	     -3.59810067	    -10.50968331	      6.94616105	     36.14246529	    105.16175466	      6.13340429	    -13.84913769	      0.26819995	     49.05327616	     98.74833395
